<?xml version="1.0" encoding="UTF-8" standalone="no"?>
<!DOCTYPE svg PUBLIC "-//W3C//DTD SVG 1.1//EN"
 "http://www.w3.org/Graphics/SVG/1.1/DTD/svg11.dtd">
<!-- Generated by graphviz version 2.36.0 (20140111.2315)
 -->
<!-- Title: %3 Pages: 1 -->
<svg id="the-graph" width="1140px" height="490px"
 viewBox="-100.00 0.00 1400.00 953.00" xmlns="http://www.w3.org/2000/svg" xmlns:xlink="http://www.w3.org/1999/xlink">
 <g id="graph0" class="graph" transform="scale(1 1) rotate(0) translate(4 949)">
 <polygon fill="white" stroke="none" points="-4,4 -4,-924 1179,-924 1179,4 -4,4"/>
 <!-- penlight&#45;&gt;LuaFileSystem -->
 <g id="edge1" class="edge"><title>penlight&#45;&gt;LuaFileSystem</title>
 <path fill="none" stroke="black" d="M410.885,-596.552C434.195,-576.321 473.616,-542.105 500.24,-518.997"/>
 <polygon fill="black" stroke="black" points="502.802,-521.408 508.06,-512.21 498.213,-516.121 502.802,-521.408"/>
 </g>
 <!-- Cosmo&#45;&gt;LPeg -->
 <g id="edge2" class="edge"><title>Cosmo&#45;&gt;LPeg</title>
 <path fill="none" stroke="black" d="M702.142,-493.929C703.607,-512.824 705.925,-542.737 707.634,-564.792"/>
 <polygon fill="black" stroke="black" points="704.156,-565.205 708.418,-574.905 711.135,-564.664 704.156,-565.205"/>
 </g>
 <!-- lub&#45;&gt;LuaFileSystem -->
 <g id="edge3" class="edge"><title>lub&#45;&gt;LuaFileSystem</title>
 <path fill="none" stroke="black" d="M514.408,-673.201C517.049,-638.831 522.8,-563.996 525.949,-523.017"/>
 <polygon fill="black" stroke="black" points="529.45,-523.133 526.727,-512.895 522.471,-522.597 529.45,-523.133"/>
 </g>
 <!-- luaposix&#45;&gt;bit32 -->
 <g id="edge4" class="edge"><title>luaposix&#45;&gt;bit32</title>
 <path fill="none" stroke="black" d="M377.788,-245.944C380.288,-245.571 382.802,-245.195 385.299,-244.822"/>
 <polygon fill="black" stroke="black" points="386.037,-248.251 395.41,-243.312 385.003,-241.328 386.037,-248.251"/>
 </g>
 <!-- lusty&#45;&gt;busted -->
 <g id="edge5" class="edge"><title>lusty&#45;&gt;busted</title>
 <path fill="none" stroke="black" d="M186.19,-453.898C202.115,-474.566 229.38,-509.951 247.866,-533.943"/>
 <polygon fill="black" stroke="black" points="245.129,-536.126 254.005,-541.911 250.674,-531.853 245.129,-536.126"/>
 </g>
 <!-- lusty&#45;&gt;mediator_lua -->
 <g id="edge6" class="edge"><title>lusty&#45;&gt;mediator_lua</title>
 <path fill="none" stroke="black" d="M149.706,-449.644C137.607,-456.028 122.551,-463.972 108.747,-471.255"/>
 <polygon fill="black" stroke="black" points="107.112,-468.16 99.9014,-475.922 110.379,-474.351 107.112,-468.16"/>
 </g>
 <!-- busted&#45;&gt;say -->
 <g id="edge37" class="edge"><title>busted&#45;&gt;say</title>
 <path fill="none" stroke="black" d="M260.287,-577.18C251.879,-598.631 237.74,-634.707 228.014,-659.522"/>
 <polygon fill="black" stroke="black" points="224.663,-658.482 224.272,-669.07 231.18,-661.036 224.663,-658.482"/>
 </g>
 <!-- busted&#45;&gt;penlight -->
 <g id="edge38" class="edge"><title>busted&#45;&gt;penlight</title>
 <path fill="none" stroke="black" d="M296.471,-571.883C312.574,-578.888 332.842,-587.706 350.53,-595.401"/>
 <polygon fill="black" stroke="black" points="349.482,-598.761 360.048,-599.541 352.274,-592.343 349.482,-598.761"/>
 </g>
 <!-- busted&#45;&gt;LuaFileSystem -->
 <g id="edge43" class="edge"><title>busted&#45;&gt;LuaFileSystem</title>
 <path fill="none" stroke="black" d="M303.046,-550.386C344.764,-540.083 414.536,-522.851 465.356,-510.301"/>
 <polygon fill="black" stroke="black" points="466.384,-513.652 475.254,-507.856 464.706,-506.856 466.384,-513.652"/>
 </g>
 <!-- busted&#45;&gt;dkjson -->
 <g id="edge39" class="edge"><title>busted&#45;&gt;dkjson</title>
 <path fill="none" stroke="black" d="M249.434,-542.786C238.472,-532.729 224.267,-519.696 212.146,-508.575"/>
 <polygon fill="black" stroke="black" points="214.271,-505.776 204.536,-501.594 209.539,-510.934 214.271,-505.776"/>
 </g>
 <!-- busted&#45;&gt;luassert -->
 <g id="edge40" class="edge"><title>busted&#45;&gt;luassert</title>
 <path fill="none" stroke="black" d="M263.226,-577.438C256.146,-608.889 241.589,-673.545 233.194,-710.834"/>
 <polygon fill="black" stroke="black" points="229.683,-710.493 230.902,-721.018 236.513,-712.031 229.683,-710.493"/>
 </g>
 <!-- busted&#45;&gt;mediator_lua -->
 <g id="edge45" class="edge"><title>busted&#45;&gt;mediator_lua</title>
 <path fill="none" stroke="black" d="M234.626,-548.122C203.894,-537.707 157.392,-521.947 121.521,-509.79"/>
 <polygon fill="black" stroke="black" points="122.302,-506.36 111.707,-506.465 120.055,-512.989 122.302,-506.36"/>
 </g>
 <!-- busted&#45;&gt;lua&#45;term -->
 <g id="edge41" class="edge"><title>busted&#45;&gt;lua&#45;term</title>
 <path fill="none" stroke="black" d="M226.253,-557.827C204.04,-557.081 176.203,-556.146 151.656,-555.322"/>
 <polygon fill="black" stroke="black" points="151.474,-551.814 141.363,-554.976 151.239,-558.81 151.474,-551.814"/>
 </g>
 <!-- busted&#45;&gt;lua_cliargs -->
 <g id="edge42" class="edge"><title>busted&#45;&gt;lua_cliargs</title>
 <path fill="none" stroke="black" d="M247.073,-574.968C219.781,-596.201 171.013,-634.145 139.581,-658.599"/>
 <polygon fill="black" stroke="black" points="137.341,-655.907 131.598,-664.81 141.64,-661.432 137.341,-655.907"/>
 </g>
 <!-- busted&#45;&gt;luasystem -->
 <g id="edge44" class="edge"><title>busted&#45;&gt;luasystem</title>
 <path fill="none" stroke="black" d="M234.466,-570.101C206.014,-579.532 164.471,-593.304 132.164,-604.014"/>
 <polygon fill="black" stroke="black" points="130.849,-600.762 122.458,-607.231 133.052,-607.406 130.849,-600.762"/>
 </g>
 <!-- Copas&#45;&gt;Coxpcall -->
 <g id="edge7" class="edge"><title>Copas&#45;&gt;Coxpcall</title>
 <path fill="none" stroke="black" d="M683.438,-120.506C667.701,-102.063 642.346,-72.3486 624.288,-51.1855"/>
 <polygon fill="black" stroke="black" points="626.913,-48.8697 617.76,-43.5345 621.588,-53.4134 626.913,-48.8697"/>
 </g>
 <!-- Copas&#45;&gt;LuaSocket -->
 <g id="edge8" class="edge"><title>Copas&#45;&gt;LuaSocket</title>
 <path fill="none" stroke="black" d="M710.345,-154.445C728.906,-179.777 763.932,-227.579 785.734,-257.333"/>
 <polygon fill="black" stroke="black" points="783.042,-259.58 791.776,-265.578 788.688,-255.443 783.042,-259.58"/>
 </g>
 <!-- WSAPI&#45;&gt;LuaFileSystem -->
 <g id="edge9" class="edge"><title>WSAPI&#45;&gt;LuaFileSystem</title>
 <path fill="none" stroke="black" d="M488.723,-312.498C496.306,-347.59 513.029,-424.979 522.056,-466.751"/>
 <polygon fill="black" stroke="black" points="518.641,-467.521 524.174,-476.556 525.483,-466.042 518.641,-467.521"/>
 </g>
 <!-- luajson&#45;&gt;LPeg -->
 <g id="edge11" class="edge"><title>luajson&#45;&gt;LPeg</title>
 <path fill="none" stroke="black" d="M753.063,-730.232C744.591,-703.375 728.621,-652.748 718.643,-621.118"/>
 <polygon fill="black" stroke="black" points="721.855,-619.665 715.509,-611.181 715.179,-621.771 721.855,-619.665"/>
 </g>
 <!-- luajson&#45;&gt;lunit -->
 <g id="edge10" class="edge"><title>luajson&#45;&gt;lunit</title>
 <path fill="none" stroke="black" d="M765.838,-766.276C776.367,-793.018 796.256,-843.533 808.591,-874.863"/>
 <polygon fill="black" stroke="black" points="805.389,-876.284 812.309,-884.307 811.903,-873.72 805.389,-876.284"/>
 </g>
 <!-- moonscript&#45;&gt;LuaFileSystem -->
 <g id="edge14" class="edge"><title>moonscript&#45;&gt;LuaFileSystem</title>
 <path fill="none" stroke="black" d="M562.559,-466.974C560.996,-468.236 559.404,-469.523 557.802,-470.817"/>
 <polygon fill="black" stroke="black" points="555.399,-468.259 549.82,-477.266 559.798,-473.704 555.399,-468.259"/>
 </g>
 <!-- moonscript&#45;&gt;LPeg -->
 <g id="edge12" class="edge"><title>moonscript&#45;&gt;LPeg</title>
 <path fill="none" stroke="black" d="M598.986,-467.61C621.512,-493.131 663.376,-540.56 688.711,-569.264"/>
 <polygon fill="black" stroke="black" points="686.147,-571.648 695.389,-576.829 691.395,-567.016 686.147,-571.648"/>
 </g>
 <!-- moonscript&#45;&gt;alt&#45;getopt -->
 <g id="edge13" class="edge"><title>moonscript&#45;&gt;alt&#45;getopt</title>
 <path fill="none" stroke="black" d="M554.612,-434.071C525.858,-418.153 481.606,-393.657 450.281,-376.316"/>
 <polygon fill="black" stroke="black" points="451.853,-373.186 441.409,-371.405 448.463,-379.31 451.853,-373.186"/>
 </g>
 <!-- WSAPI&#45;Xavante&#45;&gt;Coxpcall -->
 <g id="edge15" class="edge"><title>WSAPI&#45;Xavante&#45;&gt;Coxpcall</title>
 <path fill="none" stroke="black" d="M493.697,-150.655C515.665,-125.596 555.896,-79.7036 580.911,-51.1681"/>
 <polygon fill="black" stroke="black" points="583.576,-53.4385 587.536,-43.6116 578.312,-48.8241 583.576,-53.4385"/>
 </g>
 <!-- WSAPI&#45;Xavante&#45;&gt;Rings -->
 <g id="edge16" class="edge"><title>WSAPI&#45;Xavante&#45;&gt;Rings</title>
 <path fill="none" stroke="black" d="M465.491,-150.511C446.596,-123.833 410.939,-73.487 389.368,-43.0309"/>
 <polygon fill="black" stroke="black" points="392.058,-40.7727 383.422,-34.635 386.345,-44.8185 392.058,-40.7727"/>
 </g>
 <!-- WSAPI&#45;Xavante&#45;&gt;WSAPI -->
 <g id="edge17" class="edge"><title>WSAPI&#45;Xavante&#45;&gt;WSAPI</title>
 <path fill="none" stroke="black" d="M479.105,-186.436C480.206,-207.296 482.032,-241.877 483.32,-266.263"/>
 <polygon fill="black" stroke="black" points="479.829,-266.54 483.852,-276.342 486.819,-266.171 479.829,-266.54"/>
 </g>
 <!-- WSAPI&#45;Xavante&#45;&gt;Xavante -->
 <g id="edge18" class="edge"><title>WSAPI&#45;Xavante&#45;&gt;Xavante</title>
 <path fill="none" stroke="black" d="M503.057,-185.76C530.87,-205.16 575.936,-236.595 606.144,-257.666"/>
 <polygon fill="black" stroke="black" points="604.42,-260.731 614.624,-263.581 608.424,-254.989 604.42,-260.731"/>
 </g>
 <!-- Xavante&#45;&gt;LuaSocket -->
 <g id="edge19" class="edge"><title>Xavante&#45;&gt;LuaSocket</title>
 <path fill="none" stroke="black" d="M686.385,-280.692C702.279,-281.057 720.214,-281.469 737.229,-281.86"/>
 <polygon fill="black" stroke="black" points="737.6,-285.369 747.678,-282.1 737.761,-278.371 737.6,-285.369"/>
 </g>
 <!-- Xavante&#45;&gt;LuaFileSystem -->
 <g id="edge21" class="edge"><title>Xavante&#45;&gt;LuaFileSystem</title>
 <path fill="none" stroke="black" d="M628.404,-297.55C609.214,-335.295 564.635,-422.976 541.934,-467.624"/>
 <polygon fill="black" stroke="black" points="538.722,-466.22 537.31,-476.721 544.962,-469.393 538.722,-466.22"/>
 </g>
 <!-- Xavante&#45;&gt;Copas -->
 <g id="edge20" class="edge"><title>Xavante&#45;&gt;Copas</title>
 <path fill="none" stroke="black" d="M645.185,-261.565C655.564,-237.105 674.209,-193.161 686.305,-164.652"/>
 <polygon fill="black" stroke="black" points="689.602,-165.842 690.286,-155.27 683.158,-163.108 689.602,-165.842"/>
 </g>
 <!-- mjolnir.application&#45;&gt;mjolnir.screen -->
 <g id="edge22" class="edge"><title>mjolnir.application&#45;&gt;mjolnir.screen</title>
 <path fill="none" stroke="black" d="M995.299,-671.849C984.34,-675.611 972.561,-679.655 961.335,-683.509"/>
 <polygon fill="black" stroke="black" points="959.968,-680.278 951.646,-686.835 962.241,-686.898 959.968,-680.278"/>
 </g>
 <!-- mjolnir.application&#45;&gt;mjolnir.geometry -->
 <g id="edge23" class="edge"><title>mjolnir.application&#45;&gt;mjolnir.geometry</title>
 <path fill="none" stroke="black" d="M1059.48,-673.952C1060.44,-674.885 1061.41,-675.83 1062.38,-676.78"/>
 <polygon fill="black" stroke="black" points="1060.24,-679.582 1069.85,-684.053 1065.13,-674.568 1060.24,-679.582"/>
 </g>
 <!-- mjolnir.application&#45;&gt;mjolnir.fnutils -->
 <g id="edge24" class="edge"><title>mjolnir.application&#45;&gt;mjolnir.fnutils</title>
 <path fill="none" stroke="black" d="M1034.84,-637.912C1034.78,-637.752 1034.73,-637.591 1034.67,-637.431"/>
 <polygon fill="black" stroke="black" points="1038.73,-638.451 1032.15,-630.153 1032.12,-640.748 1038.73,-638.451"/>
 </g>
 <!-- yaml&#45;&gt;lub -->
 <g id="edge25" class="edge"><title>yaml&#45;&gt;lub</title>
 <path fill="none" stroke="black" d="M499.287,-816.824C501.968,-792.317 506.765,-748.46 509.919,-719.63"/>
 <polygon fill="black" stroke="black" points="513.431,-719.709 511.039,-709.388 506.473,-718.948 513.431,-719.709"/>
 </g>
 <!-- lapis&#45;&gt;LuaCrypto -->
 <g id="edge26" class="edge"><title>lapis&#45;&gt;LuaCrypto</title>
 <path fill="none" stroke="black" d="M839.862,-474.479C859.778,-474.961 886.514,-475.608 911.224,-476.206"/>
 <polygon fill="black" stroke="black" points="911.217,-479.706 921.298,-476.449 911.386,-472.708 911.217,-479.706"/>
 </g>
 <!-- lapis&#45;&gt;LuaSocket -->
 <g id="edge27" class="edge"><title>lapis&#45;&gt;LuaSocket</title>
 <path fill="none" stroke="black" d="M808.692,-455.486C807.947,-422.163 806.361,-351.258 805.476,-311.657"/>
 <polygon fill="black" stroke="black" points="808.974,-311.526 805.251,-301.607 801.975,-311.683 808.974,-311.526"/>
 </g>
 <!-- lapis&#45;&gt;LuaFileSystem -->
 <g id="edge35" class="edge"><title>lapis&#45;&gt;LuaFileSystem</title>
 <path fill="none" stroke="black" d="M778.763,-476.009C738.736,-479.01 666.741,-484.408 610.148,-488.651"/>
 <polygon fill="black" stroke="black" points="609.842,-485.164 600.131,-489.402 610.365,-492.144 609.842,-485.164"/>
 </g>
 <!-- lapis&#45;&gt;LPeg -->
 <g id="edge32" class="edge"><title>lapis&#45;&gt;LPeg</title>
 <path fill="none" stroke="black" d="M795.298,-490.346C778.333,-510.762 749.41,-545.57 729.967,-568.969"/>
 <polygon fill="black" stroke="black" points="727.22,-566.799 723.521,-576.727 732.604,-571.273 727.22,-566.799"/>
 </g>
 <!-- lapis&#45;&gt;etlua -->
 <g id="edge28" class="edge"><title>lapis&#45;&gt;etlua</title>
 <path fill="none" stroke="black" d="M823.124,-489.861C839.601,-508.808 867.097,-540.425 886.087,-562.262"/>
 <polygon fill="black" stroke="black" points="883.459,-564.574 892.662,-569.823 888.741,-559.98 883.459,-564.574"/>
 </g>
 <!-- lapis&#45;&gt;lua&#45;cjson -->
 <g id="edge29" class="edge"><title>lapis&#45;&gt;lua&#45;cjson</title>
 <path fill="none" stroke="black" d="M835.049,-483.534C857.672,-492.076 890.971,-504.651 917.8,-514.782"/>
 <polygon fill="black" stroke="black" points="916.768,-518.133 927.359,-518.392 919.241,-511.585 916.768,-518.133"/>
 </g>
 <!-- lapis&#45;&gt;pgmoon -->
 <g id="edge30" class="edge"><title>lapis&#45;&gt;pgmoon</title>
 <path fill="none" stroke="black" d="M818.321,-491.084C820.446,-495.082 822.755,-499.427 825.038,-503.723"/>
 <polygon fill="black" stroke="black" points="822.129,-505.708 829.913,-512.896 828.31,-502.423 822.129,-505.708"/>
 </g>
 <!-- lapis&#45;&gt;mimetypes -->
 <g id="edge31" class="edge"><title>lapis&#45;&gt;mimetypes</title>
 <path fill="none" stroke="black" d="M835.8,-464.709C858.907,-456.898 892.937,-445.394 921.048,-435.891"/>
 <polygon fill="black" stroke="black" points="922.364,-439.141 930.716,-432.623 920.122,-432.509 922.364,-439.141"/>
 </g>
 <!-- lapis&#45;&gt;date -->
 <g id="edge33" class="edge"><title>lapis&#45;&gt;date</title>
 <path fill="none" stroke="black" d="M813.01,-455.868C817.096,-437.193 823.566,-407.63 828.336,-385.833"/>
 <polygon fill="black" stroke="black" points="831.804,-386.355 830.523,-375.838 824.966,-384.858 831.804,-386.355"/>
 </g>
 <!-- lapis&#45;&gt;loadkit -->
 <g id="edge34" class="edge"><title>lapis&#45;&gt;loadkit</title>
 <path fill="none" stroke="black" d="M810.89,-491.798C813.488,-518.01 818.326,-566.832 821.395,-597.802"/>
 <polygon fill="black" stroke="black" points="817.931,-598.34 822.4,-607.946 824.897,-597.65 817.931,-598.34"/>
 </g>
 <!-- lapis&#45;&gt;ansicolors -->
 <g id="edge36" class="edge"><title>lapis&#45;&gt;ansicolors</title>
 <path fill="none" stroke="black" d="M827.155,-459.018C847.491,-442.442 880.812,-415.282 904.69,-395.818"/>
 <polygon fill="black" stroke="black" points="907.166,-398.315 912.706,-389.284 902.743,-392.89 907.166,-398.315"/>
 </g>
 <!-- LuaSec&#45;&gt;LuaSocket -->
 <g id="edge46" class="edge"><title>LuaSec&#45;&gt;LuaSocket</title>
 <path fill="none" stroke="black" d="M913.44,-147.874C891.975,-174.664 850.469,-226.469 825.449,-257.696"/>
 <polygon fill="black" stroke="black" points="822.684,-255.549 819.163,-265.542 828.147,-259.926 822.684,-255.549"/>
 </g>
 <!-- Coxpcall -->
 <g id="node1" class="node"><title>Coxpcall</title>
 <ellipse fill="yellow" stroke="white" cx="602.885" cy="-26.1023" rx="47.3916" ry="18"/>
 <text text-anchor="middle" x="602.885" y="-22.4023" font-family="sans-serif" font-size="14.00">Coxpcall</text>
 </g>
 <!-- dromozoa&#45;commons -->
 <g id="node2" class="node"><title>dromozoa&#45;commons</title>
 <ellipse fill="#1e8f66" stroke="white" cx="365.238" cy="-435.641" rx="100.983" ry="18"/>
 <text text-anchor="middle" x="365.238" y="-431.941" font-family="sans-serif" font-size="14.00">dromozoa&#45;commons</text>
 </g>
 <!-- mjolnir.screen -->
 <g id="node3" class="node"><title>mjolnir.screen</title>
 <ellipse fill="yellow" stroke="white" cx="908.972" cy="-701.484" rx="72.5877" ry="18"/>
 <text text-anchor="middle" x="908.972" y="-697.784" font-family="sans-serif" font-size="14.00">mjolnir.screen</text>
 </g>
 <!-- Rings -->
 <g id="node4" class="node"><title>Rings</title>
 <ellipse fill="yellow" stroke="white" cx="371.432" cy="-17.7067" rx="35.194" ry="18"/>
 <text text-anchor="middle" x="371.432" y="-14.0067" font-family="sans-serif" font-size="14.00">Rings</text>
 </g>
 <!-- lualogging -->
 <g id="node5" class="node"><title>lualogging</title>
 <ellipse fill="#138966" stroke="white" cx="628.238" cy="-721.641" rx="56.59" ry="18"/>
 <text text-anchor="middle" x="628.238" y="-717.941" font-family="sans-serif" font-size="14.00">lualogging</text>
 </g>
 <!-- mjolnir.geometry -->
 <g id="node6" class="node"><title>mjolnir.geometry</title>
 <ellipse fill="yellow" stroke="white" cx="1088.19" cy="-701.926" rx="86.3847" ry="18"/>
 <text text-anchor="middle" x="1088.19" y="-698.226" font-family="sans-serif" font-size="14.00">mjolnir.geometry</text>
 </g>
 <!-- LuaCrypto -->
 <g id="node7" class="node"><title>LuaCrypto</title>
 <ellipse fill="#2e9766" stroke="white" cx="978.971" cy="-477.844" rx="57.6901" ry="18"/>
 <text text-anchor="middle" x="978.971" y="-474.144" font-family="sans-serif" font-size="14.00">LuaCrypto</text>
 </g>
 <!-- say -->
 <g id="node8" class="node"><title>say</title>
 <ellipse fill="yellow" stroke="white" cx="217.424" cy="-686.544" rx="27" ry="18"/>
 <text text-anchor="middle" x="217.424" y="-682.844" font-family="sans-serif" font-size="14.00">say</text>
 </g>
 <!-- LuaSocket -->
 <g id="node9" class="node"><title>LuaSocket</title>
 <ellipse fill="#ffff66" stroke="white" cx="804.844" cy="-283.413" rx="57.3905" ry="18"/>
 <text text-anchor="middle" x="804.844" y="-279.713" font-family="sans-serif" font-size="14.00">LuaSocket</text>
 </g>
 <!-- lluv -->
 <g id="node10" class="node"><title>lluv</title>
 <ellipse fill="#188c66" stroke="white" cx="621.238" cy="-215.641" rx="27" ry="18"/>
 <text text-anchor="middle" x="621.238" y="-211.941" font-family="sans-serif" font-size="14.00">lluv</text>
 </g>
 <!-- stdlib -->
 <g id="node11" class="node"><title>stdlib</title>
 <ellipse fill="#108866" stroke="white" cx="210.238" cy="-303.641" rx="34.394" ry="18"/>
 <text text-anchor="middle" x="210.238" y="-299.941" font-family="sans-serif" font-size="14.00">stdlib</text>
 </g>
 <!-- penlight -->
 <g id="node12" class="node"><title>penlight</title>
 <ellipse fill="#2b9566" stroke="white" cx="391.618" cy="-613.275" rx="47.3916" ry="18"/>
 <text text-anchor="middle" x="391.618" y="-609.575" font-family="sans-serif" font-size="14.00">penlight</text>
 </g>
 <!-- LuaFileSystem -->
 <g id="node13" class="node"><title>LuaFileSystem</title>
 <ellipse fill="#94ca66" stroke="white" cx="528.117" cy="-494.801" rx="75.2868" ry="18"/>
 <text text-anchor="middle" x="528.117" y="-491.101" font-family="sans-serif" font-size="14.00">LuaFileSystem</text>
 </g>
 <!-- Cosmo -->
 <g id="node14" class="node"><title>Cosmo</title>
 <ellipse fill="#0d8666" stroke="white" cx="700.741" cy="-475.851" rx="40.0939" ry="18"/>
 <text text-anchor="middle" x="700.741" y="-472.151" font-family="sans-serif" font-size="14.00">Cosmo</text>
 </g>
 <!-- LPeg -->
 <g id="node15" class="node"><title>LPeg</title>
 <ellipse fill="#66b366" stroke="white" cx="709.836" cy="-593.197" rx="32.4942" ry="18"/>
 <text text-anchor="middle" x="709.836" y="-589.497" font-family="sans-serif" font-size="14.00">LPeg</text>
 </g>
 <!-- etlua -->
 <g id="node16" class="node"><title>etlua</title>
 <ellipse fill="yellow" stroke="white" cx="906.978" cy="-586.284" rx="33.5952" ry="18"/>
 <text text-anchor="middle" x="906.978" y="-582.584" font-family="sans-serif" font-size="14.00">etlua</text>
 </g>
 <!-- luv -->
 <g id="node17" class="node"><title>luv</title>
 <ellipse fill="#138966" stroke="white" cx="335.238" cy="-127.641" rx="27" ry="18"/>
 <text text-anchor="middle" x="335.238" y="-123.941" font-family="sans-serif" font-size="14.00">luv</text>
 </g>
 <!-- dkjson -->
 <g id="node18" class="node"><title>dkjson</title>
 <ellipse fill="#1b8d66" stroke="white" cx="186.689" cy="-485.22" rx="39.7935" ry="18"/>
 <text text-anchor="middle" x="186.689" y="-481.52" font-family="sans-serif" font-size="14.00">dkjson</text>
 </g>
 <!-- lua&#45;cjson -->
 <g id="node19" class="node"><title>lua&#45;cjson</title>
 <ellipse fill="#69b466" stroke="white" cx="962.067" cy="-531.498" rx="50.0912" ry="18"/>
 <text text-anchor="middle" x="962.067" y="-527.798" font-family="sans-serif" font-size="14.00">lua&#45;cjson</text>
 </g>
 <!-- lunit -->
 <g id="node20" class="node"><title>lunit</title>
 <ellipse fill="yellow" stroke="white" cx="819.33" cy="-902.137" rx="31.3957" ry="18"/>
 <text text-anchor="middle" x="819.33" y="-898.437" font-family="sans-serif" font-size="14.00">lunit</text>
 </g>
 <!-- mjolnir.alert -->
 <g id="node21" class="node"><title>mjolnir.alert</title>
 <ellipse fill="#108866" stroke="white" cx="636.238" cy="-655.641" rx="64.189" ry="18"/>
 <text text-anchor="middle" x="636.238" y="-651.941" font-family="sans-serif" font-size="14.00">mjolnir.alert</text>
 </g>
 <!-- cqueues -->
 <g id="node22" class="node"><title>cqueues</title>
 <ellipse fill="#0b8566" stroke="white" cx="817.238" cy="-171.641" rx="47.3916" ry="18"/>
 <text text-anchor="middle" x="817.238" y="-167.941" font-family="sans-serif" font-size="14.00">cqueues</text>
 </g>
 <!-- lustache -->
 <g id="node23" class="node"><title>lustache</title>
 <ellipse fill="#108866" stroke="white" cx="884.238" cy="-765.641" rx="48.1917" ry="18"/>
 <text text-anchor="middle" x="884.238" y="-761.941" font-family="sans-serif" font-size="14.00">lustache</text>
 </g>
 <!-- lub -->
 <g id="node24" class="node"><title>lub</title>
 <ellipse fill="#0d8666" stroke="white" cx="513.014" cy="-691.338" rx="27" ry="18"/>
 <text text-anchor="middle" x="513.014" y="-687.638" font-family="sans-serif" font-size="14.00">lub</text>
 </g>
 <!-- LuaExpat -->
 <g id="node25" class="node"><title>LuaExpat</title>
 <ellipse fill="#168b66" stroke="white" cx="339.238" cy="-501.641" rx="53.0913" ry="18"/>
 <text text-anchor="middle" x="339.238" y="-497.941" font-family="sans-serif" font-size="14.00">LuaExpat</text>
 </g>
 <!-- pgmoon -->
 <g id="node26" class="node"><title>pgmoon</title>
 <ellipse fill="yellow" stroke="white" cx="839.285" cy="-530.531" rx="46.2923" ry="18"/>
 <text text-anchor="middle" x="839.285" y="-526.831" font-family="sans-serif" font-size="14.00">pgmoon</text>
 </g>
 <!-- mjolnir.fnutils -->
 <g id="node27" class="node"><title>mjolnir.fnutils</title>
 <ellipse fill="#138966" stroke="white" cx="1025.84" cy="-612.001" rx="71.4873" ry="18"/>
 <text text-anchor="middle" x="1025.84" y="-608.301" font-family="sans-serif" font-size="14.00">mjolnir.fnutils</text>
 </g>
 <!-- luassert -->
 <g id="node28" class="node"><title>luassert</title>
 <ellipse fill="yellow" stroke="white" cx="226.846" cy="-739.031" rx="46.2923" ry="18"/>
 <text text-anchor="middle" x="226.846" y="-735.331" font-family="sans-serif" font-size="14.00">luassert</text>
 </g>
 <!-- lua&#45;MessagePack -->
 <g id="node29" class="node"><title>lua&#45;MessagePack</title>
 <ellipse fill="#0d8666" stroke="white" cx="394.238" cy="-765.641" rx="86.3847" ry="18"/>
 <text text-anchor="middle" x="394.238" y="-761.941" font-family="sans-serif" font-size="14.00">lua&#45;MessagePack</text>
 </g>
 <!-- lua&#45;resty&#45;http -->
 <g id="node30" class="node"><title>lua&#45;resty&#45;http</title>
 <ellipse fill="#188c66" stroke="white" cx="711.238" cy="-391.641" rx="73.387" ry="18"/>
 <text text-anchor="middle" x="711.238" y="-387.941" font-family="sans-serif" font-size="14.00">lua&#45;resty&#45;http</text>
 </g>
 <!-- luaposix -->
 <g id="node31" class="node"><title>luaposix</title>
 <ellipse fill="#2b9566" stroke="white" cx="333.502" cy="-252.561" rx="47.3916" ry="18"/>
 <text text-anchor="middle" x="333.502" y="-248.861" font-family="sans-serif" font-size="14.00">luaposix</text>
 </g>
 <!-- bit32 -->
 <g id="node32" class="node"><title>bit32</title>
 <ellipse fill="#1e8f66" stroke="white" cx="428.767" cy="-238.328" rx="34.394" ry="18"/>
 <text text-anchor="middle" x="428.767" y="-234.628" font-family="sans-serif" font-size="14.00">bit32</text>
 </g>
 <!-- lusty -->
 <g id="node33" class="node"><title>lusty</title>
 <ellipse fill="#209066" stroke="white" cx="173.315" cy="-437.188" rx="32.4942" ry="18"/>
 <text text-anchor="middle" x="173.315" y="-433.488" font-family="sans-serif" font-size="14.00">lusty</text>
 </g>
 <!-- busted -->
 <g id="node34" class="node"><title>busted</title>
 <ellipse fill="#43a166" stroke="white" cx="267.331" cy="-559.206" rx="40.8928" ry="18"/>
 <text text-anchor="middle" x="267.331" y="-555.506" font-family="sans-serif" font-size="14.00">busted</text>
 </g>
 <!-- mediator_lua -->
 <g id="node35" class="node"><title>mediator_lua</title>
 <ellipse fill="yellow" stroke="white" cx="69.2719" cy="-492.083" rx="69.5877" ry="18"/>
 <text text-anchor="middle" x="69.2719" y="-488.383" font-family="sans-serif" font-size="14.00">mediator_lua</text>
 </g>
 <!-- lua&#45;term -->
 <g id="node36" class="node"><title>lua&#45;term</title>
 <ellipse fill="yellow" stroke="white" cx="92.1254" cy="-553.323" rx="49.2915" ry="18"/>
 <text text-anchor="middle" x="92.1254" y="-549.623" font-family="sans-serif" font-size="14.00">lua&#45;term</text>
 </g>
 <!-- mimetypes -->
 <g id="node37" class="node"><title>mimetypes</title>
 <ellipse fill="#0d8666" stroke="white" cx="970.788" cy="-419.076" rx="59.5901" ry="18"/>
 <text text-anchor="middle" x="970.788" y="-415.376" font-family="sans-serif" font-size="14.00">mimetypes</text>
 </g>
 <!-- Copas -->
 <g id="node38" class="node"><title>Copas</title>
 <ellipse fill="#1e8f66" stroke="white" cx="697.864" cy="-137.411" rx="37.8943" ry="18"/>
 <text text-anchor="middle" x="697.864" y="-133.711" font-family="sans-serif" font-size="14.00">Copas</text>
 </g>
 <!-- lua&#45;TestMore -->
 <g id="node39" class="node"><title>lua&#45;TestMore</title>
 <ellipse fill="#108866" stroke="white" cx="375.238" cy="-699.641" rx="67.6881" ry="18"/>
 <text text-anchor="middle" x="375.238" y="-695.941" font-family="sans-serif" font-size="14.00">lua&#45;TestMore</text>
 </g>
 <!-- WSAPI -->
 <g id="node40" class="node"><title>WSAPI</title>
 <ellipse fill="#138966" stroke="white" cx="484.803" cy="-294.356" rx="41.6928" ry="18"/>
 <text text-anchor="middle" x="484.803" y="-290.656" font-family="sans-serif" font-size="14.00">WSAPI</text>
 </g>
 <!-- luajson -->
 <g id="node41" class="node"><title>luajson</title>
 <ellipse fill="#1e8f66" stroke="white" cx="758.773" cy="-748.331" rx="42.4939" ry="18"/>
 <text text-anchor="middle" x="758.773" y="-744.631" font-family="sans-serif" font-size="14.00">luajson</text>
 </g>
 <!-- inspect -->
 <g id="node42" class="node"><title>inspect</title>
 <ellipse fill="#0d8666" stroke="white" cx="636.238" cy="-787.641" rx="42.4939" ry="18"/>
 <text text-anchor="middle" x="636.238" y="-783.941" font-family="sans-serif" font-size="14.00">inspect</text>
 </g>
 <!-- lua&#45;ev -->
 <g id="node43" class="node"><title>lua&#45;ev</title>
 <ellipse fill="#108866" stroke="white" cx="808.238" cy="-105.641" rx="38.1938" ry="18"/>
 <text text-anchor="middle" x="808.238" y="-101.941" font-family="sans-serif" font-size="14.00">lua&#45;ev</text>
 </g>
 <!-- moonscript -->
 <g id="node44" class="node"><title>moonscript</title>
 <ellipse fill="#168b66" stroke="white" cx="583.494" cy="-450.059" rx="59.5901" ry="18"/>
 <text text-anchor="middle" x="583.494" y="-446.359" font-family="sans-serif" font-size="14.00">moonscript</text>
 </g>
 <!-- alt&#45;getopt -->
 <g id="node45" class="node"><title>alt&#45;getopt</title>
 <ellipse fill="yellow" stroke="white" cx="413.236" cy="-355.809" rx="55.4913" ry="18"/>
 <text text-anchor="middle" x="413.236" y="-352.109" font-family="sans-serif" font-size="14.00">alt&#45;getopt</text>
 </g>
 <!-- LuaBitOp -->
 <g id="node46" class="node"><title>LuaBitOp</title>
 <ellipse fill="#1e8f66" stroke="white" cx="294.238" cy="-369.641" rx="52.7911" ry="18"/>
 <text text-anchor="middle" x="294.238" y="-365.941" font-family="sans-serif" font-size="14.00">LuaBitOp</text>
 </g>
 <!-- lua&#45;path -->
 <g id="node47" class="node"><title>lua&#45;path</title>
 <ellipse fill="#0d8666" stroke="white" cx="928.238" cy="-831.641" rx="48.1917" ry="18"/>
 <text text-anchor="middle" x="928.238" y="-827.941" font-family="sans-serif" font-size="14.00">lua&#45;path</text>
 </g>
 <!-- date -->
 <g id="node48" class="node"><title>date</title>
 <ellipse fill="#209066" stroke="white" cx="834.479" cy="-357.759" rx="30.5947" ry="18"/>
 <text text-anchor="middle" x="834.479" y="-354.059" font-family="sans-serif" font-size="14.00">date</text>
 </g>
 <!-- WSAPI&#45;Xavante -->
 <g id="node49" class="node"><title>WSAPI&#45;Xavante</title>
 <ellipse fill="#0d8666" stroke="white" cx="478.152" cy="-168.388" rx="82.5854" ry="18"/>
 <text text-anchor="middle" x="478.152" y="-164.688" font-family="sans-serif" font-size="14.00">WSAPI&#45;Xavante</text>
 </g>
 <!-- Xavante -->
 <g id="node50" class="node"><title>Xavante</title>
 <ellipse fill="#0d8666" stroke="white" cx="637.546" cy="-279.57" rx="48.9926" ry="18"/>
 <text text-anchor="middle" x="637.546" y="-275.87" font-family="sans-serif" font-size="14.00">Xavante</text>
 </g>
 <!-- luaossl -->
 <g id="node51" class="node"><title>luaossl</title>
 <ellipse fill="#168b66" stroke="white" cx="613.238" cy="-567.641" rx="40.8928" ry="18"/>
 <text text-anchor="middle" x="613.238" y="-563.941" font-family="sans-serif" font-size="14.00">luaossl</text>
 </g>
 <!-- hotswap -->
 <g id="node52" class="node"><title>hotswap</title>
 <ellipse fill="#108866" stroke="white" cx="379.238" cy="-831.641" rx="49.2915" ry="18"/>
 <text text-anchor="middle" x="379.238" y="-827.941" font-family="sans-serif" font-size="14.00">hotswap</text>
 </g>
 <!-- argparse -->
 <g id="node53" class="node"><title>argparse</title>
 <ellipse fill="#138966" stroke="white" cx="248.238" cy="-831.641" rx="50.0912" ry="18"/>
 <text text-anchor="middle" x="248.238" y="-827.941" font-family="sans-serif" font-size="14.00">argparse</text>
 </g>
 <!-- Markdown -->
 <g id="node54" class="node"><title>Markdown</title>
 <ellipse fill="#0d8666" stroke="white" cx="300.238" cy="-193.641" rx="57.6901" ry="18"/>
 <text text-anchor="middle" x="300.238" y="-189.941" font-family="sans-serif" font-size="14.00">Markdown</text>
 </g>
 <!-- mjolnir.application -->
 <g id="node55" class="node"><title>mjolnir.application</title>
 <ellipse fill="#108866" stroke="white" cx="1041.16" cy="-656.105" rx="91.784" ry="18"/>
 <text text-anchor="middle" x="1041.16" y="-652.405" font-family="sans-serif" font-size="14.00">mjolnir.application</text>
 </g>
 <!-- yaml -->
 <g id="node56" class="node"><title>yaml</title>
 <ellipse fill="#108866" stroke="white" cx="497.296" cy="-835.022" rx="32.4942" ry="18"/>
 <text text-anchor="middle" x="497.296" y="-831.322" font-family="sans-serif" font-size="14.00">yaml</text>
 </g>
 <!-- lbase64 -->
 <g id="node57" class="node"><title>lbase64</title>
 <ellipse fill="#188c66" stroke="white" cx="221.238" cy="-127.641" rx="45.4919" ry="18"/>
 <text text-anchor="middle" x="221.238" y="-123.941" font-family="sans-serif" font-size="14.00">lbase64</text>
 </g>
 <!-- lapis -->
 <g id="node58" class="node"><title>lapis</title>
 <ellipse fill="#1e8f66" stroke="white" cx="809.1" cy="-473.735" rx="30.5947" ry="18"/>
 <text text-anchor="middle" x="809.1" y="-470.035" font-family="sans-serif" font-size="14.00">lapis</text>
 </g>
 <!-- loadkit -->
 <g id="node59" class="node"><title>loadkit</title>
 <ellipse fill="yellow" stroke="white" cx="824.188" cy="-625.986" rx="40.8928" ry="18"/>
 <text text-anchor="middle" x="824.188" y="-622.286" font-family="sans-serif" font-size="14.00">loadkit</text>
 </g>
 <!-- ansicolors -->
 <g id="node60" class="node"><title>ansicolors</title>
 <ellipse fill="#1b8d66" stroke="white" cx="933.264" cy="-372.526" rx="54.6905" ry="18"/>
 <text text-anchor="middle" x="933.264" y="-368.826" font-family="sans-serif" font-size="14.00">ansicolors</text>
 </g>
 <!-- MD5 -->
 <g id="node61" class="node"><title>MD5</title>
 <ellipse fill="#138966" stroke="white" cx="934.238" cy="-237.641" rx="31.6951" ry="18"/>
 <text text-anchor="middle" x="934.238" y="-233.941" font-family="sans-serif" font-size="14.00">MD5</text>
 </g>
 <!-- lua_cliargs -->
 <g id="node62" class="node"><title>lua_cliargs</title>
 <ellipse fill="yellow" stroke="white" cx="109.903" cy="-681.69" rx="57.6901" ry="18"/>
 <text text-anchor="middle" x="109.903" y="-677.99" font-family="sans-serif" font-size="14.00">lua_cliargs</text>
 </g>
 <!-- luasystem -->
 <g id="node63" class="node"><title>luasystem</title>
 <ellipse fill="yellow" stroke="white" cx="83.5007" cy="-620.145" rx="55.7903" ry="18"/>
 <text text-anchor="middle" x="83.5007" y="-616.445" font-family="sans-serif" font-size="14.00">luasystem</text>
 </g>
 <!-- LuaSec -->
 <g id="node64" class="node"><title>LuaSec</title>
 <ellipse fill="#3e9f66" stroke="white" cx="927.243" cy="-130.646" rx="42.7926" ry="18"/>
 <text text-anchor="middle" x="927.243" y="-126.946" font-family="sans-serif" font-size="14.00">LuaSec</text>
 </g>
 <!-- LOOP -->
 <g id="node65" class="node"><title>LOOP</title>
 <ellipse fill="#0b8566" stroke="white" cx="938.238" cy="-303.641" rx="36.2938" ry="18"/>
 <text text-anchor="middle" x="938.238" y="-299.941" font-family="sans-serif" font-size="14.00">LOOP</text>
 </g>
 </g>
</svg>
